<svg width="9" height="9" viewBox="0 0 9 9" fill="none" xmlns="http://www.w3.org/2000/svg">
<g clip-path="url(#clip0_1_966)">
<path d="M7.11596 1.66504C6.99549 1.66504 6.89746 1.76307 6.89746 1.88354C6.89746 2.004 6.99549 2.10203 7.11596 2.10203C7.23644 2.10203 7.33445 2.00402 7.33445 1.88354C7.33445 1.76305 7.23644 1.66504 7.11596 1.66504Z" fill="#00BDD3"/>
<path d="M4.50003 2.5625C3.43195 2.5625 2.56299 3.43146 2.56299 4.49954C2.56299 5.56762 3.43195 6.4366 4.50003 6.4366C5.56813 6.4366 6.43708 5.56764 6.43708 4.49956C6.43708 3.43147 5.56813 2.5625 4.50003 2.5625Z" fill="#00BDD3"/>
<path d="M6.53279 0H2.46721C1.10679 0 0 1.10679 0 2.46723V6.53279C0 7.89323 1.10679 9 2.46721 9H6.53279C7.89323 9 9 7.89321 9 6.53279V2.46723C9 1.10679 7.89323 0 6.53279 0ZM4.5 6.96853C3.13884 6.96853 2.03149 5.86116 2.03149 4.5C2.03149 3.13884 3.13886 2.0315 4.5 2.0315C5.86114 2.0315 6.96853 3.13886 6.96853 4.5C6.96853 5.86114 5.86114 6.96853 4.5 6.96853ZM7.11617 2.63384C6.70263 2.63384 6.36618 2.29739 6.36618 1.88385C6.36618 1.4703 6.70263 1.13384 7.11617 1.13384C7.52971 1.13384 7.86616 1.47029 7.86616 1.88383C7.86616 2.29737 7.52971 2.63384 7.11617 2.63384Z" fill="#00BDD3"/>
</g>
<defs>
<clipPath id="clip0_1_966">
<rect width="9" height="9" fill="white"/>
</clipPath>
</defs>
</svg>
