<svg width="91" height="24" viewBox="0 0 91 24" fill="none" xmlns="http://www.w3.org/2000/svg">
<path d="M3.92 19.48H13.04V23H0.24V0.599998H3.92V19.48ZM34.3338 20.056C32.0938 22.296 29.3524 23.416 26.1098 23.416C22.8671 23.416 20.1151 22.296 17.8537 20.056C15.6137 17.7947 14.4937 15.0427 14.4937 11.8C14.4937 8.55733 15.6137 5.816 17.8537 3.576C20.1151 1.31466 22.8671 0.183998 26.1098 0.183998C29.3524 0.183998 32.0938 1.31466 34.3338 3.576C36.5951 5.816 37.7258 8.55733 37.7258 11.8C37.7258 15.0427 36.5951 17.7947 34.3338 20.056ZM20.4458 17.56C21.9818 19.0747 23.8698 19.832 26.1098 19.832C28.3498 19.832 30.2271 19.0747 31.7417 17.56C33.2778 16.024 34.0458 14.104 34.0458 11.8C34.0458 9.496 33.2778 7.58667 31.7417 6.072C30.2271 4.536 28.3498 3.768 26.1098 3.768C23.8698 3.768 21.9818 4.536 20.4458 6.072C18.9311 7.58667 18.1737 9.496 18.1737 11.8C18.1737 14.104 18.9311 16.024 20.4458 17.56ZM64.1545 11.416V12.952C64.1545 16.024 63.1412 18.5413 61.1145 20.504C59.0878 22.4453 56.4425 23.416 53.1785 23.416C49.7225 23.416 46.8638 22.296 44.6025 20.056C42.3625 17.816 41.2425 15.064 41.2425 11.8C41.2425 8.55733 42.3625 5.816 44.6025 3.576C46.8638 1.31466 49.6585 0.183998 52.9865 0.183998C55.0772 0.183998 56.9865 0.663998 58.7145 1.624C60.4425 2.584 61.7865 3.87467 62.7465 5.496L59.5785 7.32C58.9812 6.25333 58.0958 5.4 56.9225 4.76C55.7492 4.09867 54.4372 3.768 52.9865 3.768C50.6398 3.768 48.7092 4.536 47.1945 6.072C45.6798 7.608 44.9225 9.528 44.9225 11.832C44.9225 14.136 45.6798 16.0453 47.1945 17.56C48.7305 19.0747 50.7358 19.832 53.2105 19.832C55.1945 19.832 56.8052 19.3733 58.0425 18.456C59.3012 17.5173 60.1012 16.2693 60.4425 14.712H52.9545V11.416H64.1545ZM87.5187 20.056C85.2787 22.296 82.5374 23.416 79.2947 23.416C76.0521 23.416 73.3001 22.296 71.0387 20.056C68.7987 17.7947 67.6787 15.0427 67.6787 11.8C67.6787 8.55733 68.7987 5.816 71.0387 3.576C73.3001 1.31466 76.0521 0.183998 79.2947 0.183998C82.5374 0.183998 85.2787 1.31466 87.5187 3.576C89.7801 5.816 90.9107 8.55733 90.9107 11.8C90.9107 15.0427 89.7801 17.7947 87.5187 20.056ZM73.6307 17.56C75.1667 19.0747 77.0547 19.832 79.2947 19.832C81.5347 19.832 83.4121 19.0747 84.9267 17.56C86.4627 16.024 87.2307 14.104 87.2307 11.8C87.2307 9.496 86.4627 7.58667 84.9267 6.072C83.4121 4.536 81.5347 3.768 79.2947 3.768C77.0547 3.768 75.1667 4.536 73.6307 6.072C72.1161 7.58667 71.3587 9.496 71.3587 11.8C71.3587 14.104 72.1161 16.024 73.6307 17.56Z" fill="#323232"/>
</svg>
