<svg width="11" height="11" viewBox="0 0 11 11" fill="none" xmlns="http://www.w3.org/2000/svg">
<path d="M6.38004 1.09961H4.62004C2.92604 1.09961 1.54004 2.48561 1.54004 4.17961V5.49961C1.54004 6.68761 2.23304 7.77661 3.30004 8.28261V9.75661C3.30004 9.88861 3.46504 9.95461 3.55304 9.85561L4.82904 8.57961H6.38004C8.07404 8.57961 9.46004 7.19361 9.46004 5.49961V4.17961C9.46004 2.48561 8.07404 1.09961 6.38004 1.09961ZM7.53504 6.87461L7.08404 7.31461C6.61104 7.77661 5.39004 7.24861 4.31204 6.14861C3.23404 5.04861 2.76104 3.81661 3.21204 3.35461L3.65204 2.91461C3.81704 2.74961 4.09204 2.76061 4.27904 2.92561L4.91704 3.58561C5.14804 3.81661 5.04904 4.21261 4.75204 4.30061C4.54304 4.36661 4.40004 4.59761 4.46604 4.80661C4.57604 5.29061 5.19204 5.90661 5.65404 6.02761C5.86304 6.07161 6.09404 5.96161 6.17104 5.75261C6.27004 5.45561 6.66604 5.36761 6.88604 5.59861L7.52404 6.25861C7.70004 6.41261 7.70004 6.68761 7.53504 6.87461ZM5.89604 3.18961C5.85204 3.18961 5.80804 3.18961 5.76404 3.20061C5.68704 3.21161 5.61004 3.14561 5.59904 3.06861C5.58804 2.99161 5.65404 2.91461 5.73104 2.90361C5.78604 2.89261 5.84104 2.89261 5.89604 2.89261C6.69904 2.89261 7.35904 3.55261 7.35904 4.35561C7.35904 4.41061 7.35904 4.46561 7.34804 4.52061C7.33704 4.59761 7.26004 4.66361 7.18304 4.65261C7.10604 4.64161 7.04004 4.56461 7.05104 4.48761C7.05104 4.44361 7.06204 4.39961 7.06204 4.35561C7.07304 3.71761 6.54504 3.18961 5.89604 3.18961ZM6.77604 4.36661C6.77604 4.44361 6.71004 4.50961 6.63304 4.50961C6.55604 4.50961 6.49004 4.44361 6.49004 4.36661C6.49004 4.04761 6.22604 3.78361 5.90704 3.78361C5.83004 3.78361 5.76404 3.71761 5.76404 3.64061C5.76404 3.56361 5.83004 3.49761 5.90704 3.49761C6.38004 3.48661 6.77604 3.88261 6.77604 4.36661ZM7.89804 4.83961C7.87604 4.91661 7.79904 4.97161 7.71104 4.94961C7.63404 4.92761 7.59004 4.85061 7.61204 4.77361C7.64504 4.64161 7.65604 4.50961 7.65604 4.36661C7.65604 3.39861 6.86404 2.60661 5.89604 2.60661C5.85204 2.60661 5.80804 2.60661 5.76404 2.60661C5.68704 2.60661 5.61004 2.55161 5.61004 2.47461C5.61004 2.39761 5.66504 2.32061 5.74204 2.32061C5.79704 2.32061 5.85204 2.30961 5.89604 2.30961C7.02904 2.30961 7.95304 3.23361 7.95304 4.36661C7.95304 4.52061 7.93104 4.68561 7.89804 4.83961Z" fill="#00BDD3"/>
</svg>
